<?xml version="1.0" encoding="utf-8"?>
<!-- Generator: Adobe Illustrator 24.3.0, SVG Export Plug-In . SVG Version: 6.00 Build 0)  -->
<svg version="1.1" id="Capa_1" xmlns="http://www.w3.org/2000/svg" xmlns:xlink="http://www.w3.org/1999/xlink" x="0px" y="0px"
	 viewBox="0 0 512 512" style="enable-background:new 0 0 512 512;" xml:space="preserve">
<style type="text/css">
	.st0{fill:#008F65;}
</style>
<g>
	<g>
		<path class="st0" d="M111.7,358.3c-4.2-3.5-10.5-3-14.1,1.2l-25,29.9l-9-7.7c-4.2-3.6-10.5-3-14.1,1.2c-3.6,4.2-3,10.5,1.2,14.1
			l16.7,14.2c1.8,1.5,4.1,2.4,6.5,2.4c0.3,0,0.6,0,0.9,0c2.7-0.2,5.1-1.5,6.8-3.5l31.5-37.6C116.5,368.2,116,361.9,111.7,358.3z"/>
		<path class="st0" d="M490.8,204.1h-14.4c-12-0.6-21.7-10.8-32.9-22.7c-7.5-7.9-15.5-16.4-25.2-22.7V73.2
			c0-15.1-12.2-27.3-27.3-27.3H64.9c-15.1,0-27.3,12.2-27.3,27.3v69.4c0,5.5,4.5,10,10,10s10-4.5,10-10V73.2c0-4,3.3-7.3,7.3-7.3
			h110.7v88.5c0,3.6,2,7,5.2,8.7c1.5,0.8,3.2,1.3,4.8,1.3c1.8,0,3.7-0.5,5.3-1.5l37.1-23.2l37.1,23.2c3.1,1.9,7,2,10.1,0.3
			s5.2-5.1,5.2-8.7V65.9h110.7c4,0,7.3,3.3,7.3,7.3v77c-3.3-0.7-6.7-1.1-10.3-1.2c-0.1,0-0.1,0-0.2,0h-25.3h-19.7h-11.3
			c-0.1,0-0.1,0-0.2,0c-12.1,0.2-18.2,5.7-21.3,10.2c-4.8,7.1-5.2,16.6-1.2,26.9c0.9,2.4,2,4.7,3.3,6.8h-75.8
			c-16.3,0-29.5,13.3-29.5,29.5c0,3.4,0.6,6.6,1.6,9.6h-2.7c-16.3,0-29.5,13.3-29.5,29.5s13.3,29.5,29.5,29.5h2.6
			c-1,3-1.6,6.2-1.6,9.5c0,15.8,12.4,28.7,28,29.5c-1,3-1.6,6.2-1.6,9.6c0,16.3,13.3,29.5,29.5,29.5h123.9c4.3,0,8.2-0.5,11.7-1.4
			v31.3c0,4-3.3,7.3-7.3,7.3H159.4c2-7,3-14.3,3-21.9c0-44.8-36.4-81.2-81.2-81.2c-8.2,0-16.2,1.2-23.6,3.5v-74.5
			c0-5.5-4.5-10-10-10s-10,4.5-10,10v83.8C15,330.8,0,356.1,0,384.8c0,44.8,36.4,81.3,81.2,81.3c29.5,0,55.3-15.8,69.6-39.3h240.3
			c15.1,0,27.3-12.3,27.3-27.3v-41.2c2.2-1.6,4.3-3.2,6.4-4.8c8.8-6.8,16.5-12.7,28.6-12.7h37.5c11.7,0,21.2-9.5,21.2-21.1v-94.3
			C512,213.6,502.5,204.1,490.8,204.1L490.8,204.1z M260.4,136.4l-27.1-17c-3.2-2-7.4-2-10.6,0l-27.1,17V65.9h64.9V136.4z
			 M81.2,446.1c-33.8,0-61.2-27.5-61.2-61.3c0-33.8,27.5-61.2,61.2-61.2s61.2,27.5,61.2,61.2C142.5,418.6,115,446.1,81.2,446.1z
			 M492,319.6c0,0.6-0.5,1.1-1.2,1.1h-37.5c-19,0-30.6,8.9-40.8,16.8c-8.6,6.6-15.4,11.9-25.9,11.9H262.8c-5.3,0-9.5-4.3-9.5-9.5
			s4.3-9.5,9.5-9.5h33.2c5.5,0,10-4.5,10-10s-4.5-10-10-10h-59.6c-5.3,0-9.5-4.3-9.5-9.6c0-5.3,4.3-9.5,9.5-9.5h59.6
			c5.5,0,10-4.5,10-10s-4.5-10-10-10h-90.2c-5.3,0-9.5-4.3-9.5-9.5s4.3-9.5,9.5-9.5h90.2c5.5,0,10-4.5,10-10s-4.5-10-10-10h-59.6
			c-5.3,0-9.5-4.3-9.5-9.6c0-5.3,4.3-9.5,9.5-9.5h111.6h21.7h14.5c5.5,0,10-4.5,10-10s-4.5-10-10-10h-14.5h-21.7
			c-9.1,0-17.2-5.5-20.4-14c-1.9-4.9-1.4-7.8-0.8-8.6c0.5-0.8,2.5-1.3,5-1.4h30.9h25.2c16.9,0.3,28.7,12.8,41.2,26.1
			c13.1,13.8,26.6,28.2,46.9,28.9c0.1,0,0.3,0,0.4,0h14.6c0.6,0,1.2,0.5,1.2,1.2L492,319.6L492,319.6z"/>
		<path class="st0" d="M47.6,197.6c5.5,0,10-4.5,10-10s-4.5-10-10-10s-10,4.5-10,10v0.1C37.6,193.1,42.1,197.6,47.6,197.6z"/>
	</g>
</g>
</svg>
