<?xml version="1.0" encoding="utf-8"?>
<!-- Generator: Adobe Illustrator 24.3.0, SVG Export Plug-In . SVG Version: 6.00 Build 0)  -->
<svg version="1.1" id="Capa_1" xmlns="http://www.w3.org/2000/svg" xmlns:xlink="http://www.w3.org/1999/xlink" x="0px" y="0px"
	 viewBox="0 0 512 512" style="enable-background:new 0 0 512 512;" xml:space="preserve">
<style type="text/css">
	.st0{fill:#008F65;}
</style>
<g>
	<g>
		<path class="st0" d="M215.1,457.9c-1.9-1.9-4.4-2.9-7.1-2.9s-5.2,1.1-7.1,2.9s-2.9,4.4-2.9,7.1s1.1,5.2,2.9,7.1
			c1.9,1.9,4.4,2.9,7.1,2.9s5.2-1.1,7.1-2.9c1.9-1.9,2.9-4.4,2.9-7.1S216.9,459.8,215.1,457.9z"/>
	</g>
</g>
<g>
	<g>
		<path class="st0" d="M349.4,27.9h-62.8c-5.5,0-10,4.5-10,10s4.5,10,10,10h62.8c5.5,0,10-4.5,10-10S354.9,27.9,349.4,27.9z"/>
	</g>
</g>
<g>
	<g>
		<path class="st0" d="M454,226c5.5,0,10-4.5,10-10V36.2C464,16.2,447.8,0,427.8,0H208.2C188.2,0,172,16.2,172,36.2v69.1
			c-28.9,23.4-52.7,53.3-69,86.6c-17,34.9-26,73.8-26,112.6V409h-9c-11,0-20,9-20,20v73c0,5.5,4.5,10,10,10s10-4.5,10-10v-73h177.4
			v73c0,5.5,4.5,10,10,10s10-4.5,10-10v-44h162.4c19.9,0,36.2-16.2,36.2-36.2V299.1c0-5.5-4.5-10-10-10s-10,4.5-10,10V373H294.1
			l31.8-44.8c7.6-10.7,8.6-24.6,2.5-36.2s-17.9-18.9-31-18.9c-7.5,0-14.9,2.5-20.8,6.9l-63.2,47.1c-2.3,1.7-5.1,2.7-8,2.7
			c-7.4,0-13.4-6-13.4-13.4V304V76h252v140C444,221.5,448.5,226,454,226z M444,393v28.8l0,0c0,8.9-7.2,16.2-16.2,16.2H265.4v-9
			c0-6.6-3.2-12.4-8.1-16c8.3-5.4,15.9-12.2,22.3-20c0.1,0,0.3,0,0.4,0L444,393L444,393z M205.4,349.7c7.1,0,14.2-2.4,20-6.6
			l63.2-47.1c2.6-1.9,5.7-3,8.9-3c5.7,0,10.6,3,13.2,8.1c2.6,5,2.2,10.8-1.1,15.5l-42.2,59.5c-14.6,20.6-38.5,32.9-63.7,32.9H97
			V304.4c0-66.3,27.1-128.2,75-172.8V304v12.3C172,334.7,187,349.7,205.4,349.7z M192,56V36.2c0-8.9,7.2-16.2,16.2-16.2h219.7
			c8.9,0,16.2,7.2,16.2,16.2V56H192z"/>
	</g>
</g>
<g>
	<g>
		<path class="st0" d="M325.1,407.6c-1.9-1.9-4.4-2.9-7.1-2.9s-5.2,1.1-7.1,2.9c-1.9,1.9-2.9,4.4-2.9,7.1c0,2.6,1.1,5.2,2.9,7.1
			c1.9,1.9,4.4,2.9,7.1,2.9s5.2-1.1,7.1-2.9c1.9-1.9,2.9-4.4,2.9-7.1C328,412,326.9,409.4,325.1,407.6z"/>
	</g>
</g>
<g>
	<g>
		<path class="st0" d="M393.4,158.8c-4.2-5.2-10.4-8.1-17.1-8.1h-27.3l-8.5-14.7c-2.8-4.8-8.9-6.4-13.7-3.7s-6.4,8.9-3.7,13.7
			l2.7,4.7h-15.7l2.7-4.7c2.8-4.8,1.1-10.9-3.7-13.7c-4.8-2.8-10.9-1.1-13.7,3.7l-8.5,14.7h-27.3c-6.7,0-12.9,3-17.1,8.1
			s-5.8,11.9-4.5,18.4l13.2,63.9c2.1,10.2,11.2,17.6,21.6,17.6h90.2c10.4,0,19.5-7.4,21.6-17.6l13.2-63.9
			C399.2,170.6,397.6,163.9,393.4,158.8z M378.3,173.1L365.1,237c-0.2,1-1,1.6-2,1.6h-90.2c-1,0-1.8-0.7-2-1.6l-13.2-63.9
			c-0.2-0.8,0.1-1.4,0.4-1.7c0.3-0.3,0.8-0.8,1.6-0.8h15.8l-5.7,9.8c-2.8,4.8-1.1,10.9,3.7,13.7c1.6,0.9,3.3,1.3,5,1.3
			c3.5,0,6.8-1.8,8.7-5l11.5-19.8h38.8v0l11.5,19.8c1.9,3.2,5.2,5,8.7,5c1.7,0,3.4-0.4,5-1.3c4.8-2.8,6.4-8.9,3.7-13.7l-5.7-9.8
			h15.8c0.8,0,1.3,0.4,1.6,0.8C378.1,171.8,378.4,172.3,378.3,173.1z"/>
	</g>
</g>
<g>
	<g>
		<path class="st0" d="M461.1,248.9c-1.9-1.9-4.4-2.9-7.1-2.9s-5.2,1.1-7.1,2.9c-1.9,1.9-2.9,4.4-2.9,7.1s1.1,5.2,2.9,7.1
			c1.9,1.9,4.4,2.9,7.1,2.9s5.2-1.1,7.1-2.9c1.9-1.9,2.9-4.4,2.9-7.1S462.9,250.8,461.1,248.9z"/>
	</g>
</g>
</svg>
