<?xml version="1.0" encoding="utf-8"?>
<!-- Generator: Adobe Illustrator 24.3.0, SVG Export Plug-In . SVG Version: 6.00 Build 0)  -->
<svg version="1.1" id="Capa_1" xmlns="http://www.w3.org/2000/svg" xmlns:xlink="http://www.w3.org/1999/xlink" x="0px" y="0px"
	 viewBox="0 0 512 512" style="enable-background:new 0 0 512 512;" xml:space="preserve">
<style type="text/css">
	.st0{fill:#008F65;}
</style>
<g>
	<g>
		<path class="st0" d="M129,0c-5.5,0-10,4.5-10,10c0,5.5,4.5,10,10,10c56.5,0,102.5,47.2,102.5,105.1c0,5.5,4.5,10,10,10
			c5.5,0,10-4.5,10-10C251.5,56.1,196.6,0,129,0z"/>
	</g>
</g>
<g>
	<g>
		<path class="st0" d="M129,47.4c-5.5,0-10,4.5-10,10c0,5.5,4.5,10,10,10c30.9,0,56.1,25.9,56.1,57.7c0,5.5,4.5,10,10,10
			c5.5,0,10-4.5,10-10C205.1,82.3,171,47.4,129,47.4z"/>
	</g>
</g>
<g>
	<g>
		<path class="st0" d="M129.2,91.2c-5.5,0-10,4.5-10,10c0,5.5,4.5,10,10,10c7.2,0,13.1,6.1,13.1,13.7c0,5.5,4.5,10,10,10
			c5.5,0,10-4.5,10-10C162.3,106.3,147.5,91.2,129.2,91.2z"/>
	</g>
</g>
<g>
	<g>
		<path class="st0" d="M458.5,79.3h-22.2c-5.5,0-10,4.5-10,10s4.5,10,10,10h22.2c18.5,0,33.5,15,33.5,33.5v135.8
			c0,10.6-5,20.1-12.7,26.3v-26.2c0-20.4-14.6-37.9-34.6-41.7l-6.5-1.2c1.4-4.4,2.2-9.1,2.2-14v-23c0-25-20.3-45.3-45.3-45.3
			s-45.3,20.3-45.3,45.3v23c0,4.9,0.8,9.6,2.2,14l-6.5,1.2c-20.1,3.7-34.6,21.3-34.6,41.7v29c-10.1-5.8-16.9-16.7-16.9-29.1V132.8
			c0-18.5,15-33.5,33.5-33.5h23.8c5.5,0,10-4.5,10-10s-4.5-10-10-10h-23.8c-29.5,0-53.5,24-53.5,53.5v135.8
			c0,29.5,24,53.5,53.5,53.5h50.3v28.8c0,4,2.4,7.7,6.2,9.2c1.2,0.5,2.5,0.8,3.8,0.8c2.6,0,5.1-1,7.1-2.9l36.1-35.9h27.6
			c29.5,0,53.5-24,53.5-53.5V132.8C512,103.3,488,79.3,458.5,79.3z M369.8,188.8c0-14,11.4-25.3,25.3-25.3s25.3,11.4,25.3,25.3v23
			c0,14-11.4,25.3-25.3,25.3s-25.3-11.4-25.3-25.3V188.8z M459.2,302c-0.3,0-0.5,0-0.8,0h-31.7v0c-2.6,0-5.2,1-7,2.9l-22,21.8V312
			c0-5.5-4.5-10-10-10h-56.9v-33.4c0-10.8,7.7-20,18.3-22l14.1-2.6c8.2,8.1,19.4,13.1,31.8,13.1c12.4,0,23.6-5,31.8-13.1l14.1,2.6
			c10.6,2,18.3,11.2,18.3,22L459.2,302L459.2,302z"/>
	</g>
</g>
<g>
	<g>
		<path class="st0" d="M396.1,82.2c-1.9-1.9-4.4-2.9-7.1-2.9s-5.2,1.1-7.1,2.9c-1.9,1.9-2.9,4.4-2.9,7.1c0,2.6,1.1,5.2,2.9,7.1
			c1.9,1.9,4.4,2.9,7.1,2.9c2.6,0,5.2-1.1,7.1-2.9c1.9-1.9,2.9-4.4,2.9-7.1C399,86.6,397.9,84.1,396.1,82.2z"/>
	</g>
</g>
<g>
	<g>
		<path class="st0" d="M185.9,336.4c-1.9-1.9-4.4-2.9-7.1-2.9c-2.6,0-5.2,1.1-7.1,2.9c-1.9,1.9-2.9,4.4-2.9,7.1
			c0,2.6,1.1,5.2,2.9,7.1c1.9,1.9,4.4,2.9,7.1,2.9s5.2-1.1,7.1-2.9c1.9-1.9,2.9-4.4,2.9-7.1C188.8,340.9,187.7,338.3,185.9,336.4z"
			/>
	</g>
</g>
<g>
	<g>
		<path class="st0" d="M404.8,426.9l-76.6-76.6c-10.2-10.2-26.2-11.7-38.1-3.6l-48.9,33.4c-4,2.7-9.3,2.2-12.7-1.2l-16.2-16.2
			c-3.9-3.9-10.2-3.9-14.1,0c-3.9,3.9-3.9,10.2,0,14.1l16.2,16.2c10.2,10.2,26.2,11.7,38.2,3.6l48.9-33.4c4-2.7,9.3-2.2,12.7,1.2
			l76.6,76.6c3.9,3.9,3.9,10.2,0,14.1c-49.1,49.1-129.1,49.1-178.2,0L56.8,299.6c-23.8-23.8-36.9-55.4-36.9-89.1
			s13.1-65.3,36.9-89.1c1.9-1.9,4.4-2.9,7.1-2.9c2.7,0,5.2,1,7.1,2.9l76.6,76.6c3.4,3.4,3.9,8.7,1.2,12.7l-33.4,48.9
			c-8.1,11.9-6.6,27.9,3.6,38.1l24.3,24.3c3.9,3.9,10.2,3.9,14.1,0c3.9-3.9,3.9-10.2,0-14.1l-24.3-24.3c-3.4-3.4-3.9-8.7-1.2-12.7
			l33.4-48.9c8.1-11.9,6.6-28-3.6-38.1l-76.6-76.6c-11.7-11.7-30.7-11.7-42.4,0c-56.9,56.9-56.9,149.6,0,206.5l155.6,155.6
			c28.5,28.5,65.9,42.7,103.2,42.7c37.4,0,74.8-14.2,103.2-42.7C416.5,457.6,416.5,438.6,404.8,426.9z"/>
	</g>
</g>
<g>
	<g>
		<path class="st0" d="M134.7,245.9l-60.6-60.6c-3.9-3.9-10.2-3.9-14.1,0c-3.9,3.9-3.9,10.2,0,14.1l60.6,60.6c2,2,4.5,2.9,7.1,2.9
			c2.6,0,5.1-1,7.1-2.9C138.6,256.2,138.6,249.8,134.7,245.9z"/>
	</g>
</g>
<g>
	<g>
		<path class="st0" d="M366.8,478L303,414.2c-3.9-3.9-10.2-3.9-14.1,0c-3.9,3.9-3.9,10.2,0,14.1l63.8,63.8c2,2,4.5,2.9,7.1,2.9
			c2.6,0,5.1-1,7.1-2.9C370.7,488.2,370.7,481.9,366.8,478z"/>
	</g>
</g>
</svg>
