<?xml version="1.0" encoding="utf-8"?>
<!-- Generator: Adobe Illustrator 24.3.0, SVG Export Plug-In . SVG Version: 6.00 Build 0)  -->
<svg version="1.1"
	 id="Layer_1" xmlns:cc="http://creativecommons.org/ns#" xmlns:dc="http://purl.org/dc/elements/1.1/" xmlns:inkscape="http://www.inkscape.org/namespaces/inkscape" xmlns:rdf="http://www.w3.org/1999/02/22-rdf-syntax-ns#" xmlns:sodipodi="http://sodipodi.sourceforge.net/DTD/sodipodi-0.dtd" xmlns:svg="http://www.w3.org/2000/svg"
	 xmlns="http://www.w3.org/2000/svg" xmlns:xlink="http://www.w3.org/1999/xlink" x="0px" y="0px" viewBox="0 0 84 60"
	 style="enable-background:new 0 0 84 60;" xml:space="preserve">
<style type="text/css">
	.st0{fill:#008F65;}
</style>
<g transform="translate(0,-952.36218)">
	<path class="st0" d="M9,952.4c-4.9,0-9,4.1-9,9v42c0,4.9,4.1,9,9,9h66c4.9,0,9-4.1,9-9v-42c0-4.9-4.1-9-9-9H9z M9.5,958.4h65
		L44,986.5c-1.4,1.3-2.7,1.3-4.1,0L9.5,958.4z M6,963.3l29.8,27.6c3.4,3.2,8.9,3.2,12.3,0L78,963.3v40.1c0,1.7-1.3,3-3,3H9
		c-1.7,0-3-1.3-3-3C6,1003.4,6,963.3,6,963.3z"/>
</g>
</svg>
