<?xml version="1.0" encoding="utf-8"?>
<!-- Generator: Adobe Illustrator 24.3.0, SVG Export Plug-In . SVG Version: 6.00 Build 0)  -->
<svg version="1.1" id="Layer_1" xmlns="http://www.w3.org/2000/svg" xmlns:xlink="http://www.w3.org/1999/xlink" x="0px" y="0px"
	 viewBox="0 0 64 80" style="enable-background:new 0 0 64 80;" xml:space="preserve">
<style type="text/css">
	.st0{fill:#008F65;}
</style>
<g>
	<path class="st0" d="M44.9,43.5c0,6.2-5,11.2-11.2,11.2s-11.2-5-11.2-11.2s5-11.2,11.2-11.2l0,0C39.9,32.3,44.9,37.3,44.9,43.5z
		 M57.2,33.5v20c0,7.5-6,13.5-13.5,13.5h-20c-7.5,0-13.5-6-13.5-13.5v-20c0-7.5,6-13.5,13.5-13.5h20C51.1,20,57.2,26,57.2,33.5z
		 M54.2,33.5c0-5.8-4.7-10.5-10.5-10.5h-20c-5.8,0-10.5,4.7-10.5,10.5v20c0,5.8,4.7,10.5,10.5,10.5h20c5.8,0,10.5-4.7,10.5-10.5
		V33.5z M49.4,29.1c-0.1-0.2-0.1-0.3-0.2-0.4c-0.1-0.1-0.2-0.3-0.3-0.4c-0.1-0.1-0.2-0.2-0.4-0.3c-0.1-0.1-0.3-0.2-0.4-0.2
		c-0.2-0.1-0.3-0.1-0.5-0.1c-0.3-0.1-0.7-0.1-1,0c-0.2,0-0.3,0.1-0.5,0.1c-0.2,0.1-0.3,0.1-0.4,0.2c-0.1,0.1-0.3,0.2-0.4,0.3
		c-0.1,0.1-0.2,0.2-0.3,0.4c-0.1,0.1-0.2,0.3-0.2,0.4c-0.1,0.2-0.1,0.3-0.1,0.5c-0.1,0.3-0.1,0.7,0,1c0,0.2,0.1,0.3,0.1,0.5
		c0.1,0.2,0.1,0.3,0.2,0.4c0.1,0.1,0.2,0.3,0.3,0.4c0.1,0.1,0.2,0.2,0.4,0.3c0.1,0.1,0.3,0.2,0.4,0.2c0.2,0.1,0.3,0.1,0.5,0.1
		c0.3,0.1,0.7,0.1,1,0c0.2,0,0.3-0.1,0.5-0.1c0.2-0.1,0.3-0.1,0.4-0.2c0.1-0.1,0.3-0.2,0.4-0.3c0.1-0.1,0.2-0.2,0.3-0.4
		c0.2-0.3,0.3-0.6,0.4-0.9c0.1-0.3,0.1-0.7,0-1C49.5,29.4,49.5,29.2,49.4,29.1z"/>
</g>
</svg>
