<?xml version="1.0" encoding="utf-8"?>
<!-- Generator: Adobe Illustrator 24.3.0, SVG Export Plug-In . SVG Version: 6.00 Build 0)  -->
<svg version="1.1" id="Layer_1" xmlns="http://www.w3.org/2000/svg" xmlns:xlink="http://www.w3.org/1999/xlink" x="0px" y="0px"
	 viewBox="0 0 47 47" style="enable-background:new 0 0 47 47;" xml:space="preserve">
<style type="text/css">
	.st0{fill:#008F65;}
</style>
<g>
	<path class="st0" d="M34.7,23.5c0,6.2-5,11.2-11.2,11.2s-11.2-5-11.2-11.2s5-11.2,11.2-11.2l0,0C29.7,12.3,34.7,17.3,34.7,23.5z
		 M47,13.5v20C47,41,41,47,33.5,47h-20C6,47,0,41,0,33.5v-20C0,6,6,0,13.5,0h20C40.9,0,47,6,47,13.5z M44,13.5C44,7.7,39.3,3,33.5,3
		h-20C7.7,3,3,7.7,3,13.5v20C3,39.3,7.7,44,13.5,44h20C39.3,44,44,39.3,44,33.5V13.5z M39.2,9.1c-0.1-0.2-0.1-0.3-0.2-0.4
		c-0.1-0.1-0.2-0.3-0.3-0.4S38.5,8.1,38.3,8c-0.1-0.1-0.3-0.2-0.4-0.2c-0.2-0.1-0.3-0.1-0.5-0.1c-0.3-0.1-0.7-0.1-1,0
		c-0.2,0-0.3,0.1-0.5,0.1c-0.2,0.1-0.3,0.1-0.4,0.2c-0.1,0.1-0.3,0.2-0.4,0.3c-0.1,0.1-0.2,0.2-0.3,0.4c-0.1,0.1-0.2,0.3-0.2,0.4
		c-0.1,0.2-0.1,0.3-0.1,0.5c-0.1,0.3-0.1,0.7,0,1c0,0.2,0.1,0.3,0.1,0.5c0.1,0.2,0.1,0.3,0.2,0.4c0.1,0.1,0.2,0.3,0.3,0.4
		s0.2,0.2,0.4,0.3c0.1,0.1,0.3,0.2,0.4,0.2c0.2,0.1,0.3,0.1,0.5,0.1c0.3,0.1,0.7,0.1,1,0c0.2,0,0.3-0.1,0.5-0.1
		c0.2-0.1,0.3-0.1,0.4-0.2c0.1-0.1,0.3-0.2,0.4-0.3c0.1-0.1,0.2-0.2,0.3-0.4c0.2-0.3,0.3-0.6,0.4-0.9c0.1-0.3,0.1-0.7,0-1
		C39.3,9.4,39.3,9.2,39.2,9.1z"/>
</g>
</svg>
