<?xml version="1.0" encoding="utf-8"?>
<!-- Generator: Adobe Illustrator 24.3.0, SVG Export Plug-In . SVG Version: 6.00 Build 0)  -->
<svg version="1.1" id="Layer_1" xmlns="http://www.w3.org/2000/svg" xmlns:xlink="http://www.w3.org/1999/xlink" x="0px" y="0px"
	 viewBox="0 0 301.1 316.6" style="enable-background:new 0 0 301.1 316.6;" xml:space="preserve">
<style type="text/css">
	.st0{fill-rule:evenodd;clip-rule:evenodd;fill:#008F65;}
</style>
<g>
	<path class="st0" d="M88,20C85,10,82,2,72,1L53,0C33-1,0,29,0,79c1,87,131,229,217,237c51,5,83-25,84-46v-18c1-10-7-14-17-18
		c-19-7-38-16-57-23c-8-3-15,2-20,5c-7,6-12,10-18,17c-5,4-10,6-15,1c-43-22-78-60-96-104c-4-6-2-11,3-15c7-6,12-11,18-17
		c4-4,9-11,7-19C100,60,94,39,88,20z"/>
</g>
</svg>
